#!OML:ASF X:\für Bonn\!DataBase\2005_08_12_Daniel\c3d\Daniel.ASF
:FULLY-SPECIFIED
:DEGREES
155
root 1.23871 18.3807 0.195138 2.71201 -80.2537 -11.4975
lowerback 20.4234 0.433834 3.47576
upperback -7.56931 0.83726 -3.71326
thorax -20.0656 -0.467078 -6.52066
lowerneck -1.3411 -5.76855 -3.32472
upperneck 10.6291 -7.76081 0.219785
head 3.84664 -4.0224 0.3445
rclavicle 7.55382e-015 3.18055e-015
rhumerus 69.4399 -10.8957 -65.2324
rradius 82.3174
rwrist 40.2036
rhand -64.5381 249.922
rfingers 7.12502
rthumb -36.4605 443.876
lclavicle 7.55382e-015 3.18055e-015
lhumerus -108.696 209.875 -119.216
lradius 88.1277
lwrist 46.0237
lhand -19.7798 -10.3857
lfingers 7.12502
lthumb 6.5524 19.493
rfemur 2.59672 4.57677 18.1955
rtibia 33.0137
rfoot 355.844 -23.8643
rtoes -14.4162
lfemur -8.98689 -18.4334 -13.869
ltibia 41.1316
lfoot 5.31358 12.0849
ltoes 0.668798
156
root 1.10946 18.7461 0.183244 4.1591 -79.9658 -11.2279
lowerback 17.7928 0.574808 3.25801
upperback -8.36118 0.853814 -3.81561
thorax -19.4656 -0.448547 -6.47353
lowerneck -1.72189 -5.80467 -3.57189
upperneck 11.9107 -7.83815 0.361573
head 4.40446 -4.08356 0.389123
rclavicle -7.95139e-016 1.74931e-014
rhumerus 69.912 -11.2481 -64.7515
rradius 81.89
rwrist 39.9586
rhand -64.2902 249.769
rfingers 7.12502
rthumb -36.2258 443.97
lclavicle -7.95139e-016 1.74931e-014
lhumerus -109.532 210.485 -118.435
lradius 88.5824
lwrist 45.885
lhand -20.0117 -9.762
lfingers 7.12502
lthumb 6.32853 20.1235
rfemur 3.02774 11.037 20.2399
rtibia 29.776
rfoot 350.086 -29.8684
rtoes -7.86442
lfemur -9.6413 -20.0608 -13.5577
ltibia 38.5434
lfoot 8.23124 15.5883
ltoes 3.96246
157
root 0.988787 19.0822 0.171582 5.19521 -79.6926 -10.4582
lowerback 15.2204 0.720175 2.94784
upperback -9.01019 0.866656 -3.87051
thorax -19.1206 -0.468702 -6.51054
lowerneck -2.06601 -5.84002 -3.71885
upperneck 13.087 -7.91963 0.464722
head 4.92336 -4.1436 0.406767
rclavicle 1.63003e-014 -5.08889e-014
rhumerus 70.4055 -11.603 -64.3537
rradius 81.3415
rwrist 39.6578
rhand -63.9695 249.566
rfingers 7.12502
rthumb -35.9221 444.098
lclavicle 1.63003e-014 -5.08889e-014
lhumerus -110.268 211.005 -117.631
lradius 88.9195
lwrist 45.8879
lhand -20.2402 -9.04262
lfingers 7.12502
lthumb 6.10789 20.8493
rfemur 3.25667 18.574 22.3045
rtibia 27.623
rfoot 339.894 -33.7889
rtoes 0.17791
lfemur -10.8885 -21.8041 -13.214
ltibia 36.8193
lfoot 9.9601 18.7718
ltoes 5.94052
158
root 0.874721 19.3997 0.160319 5.00889 -79.463 -8.986
lowerback 13.1684 0.851543 2.51004
upperback -9.69399 0.833147 -4.05363
thorax -18.6375 -0.453092 -6.39616
lowerneck -2.33709 -5.87794 -3.75021
upperneck 14.5644 -8.01269 0.514207
head 4.93396 -4.20226 0.355212
rclavicle 2.62396e-014 7.95139e-015
rhumerus 70.9238 -11.8928 -64.119
rradius 80.6601
rwrist 39.5486
rhand -63.6994 249.167
rfingers 7.12502
rthumb -35.6661 444.436
lclavicle 2.62396e-014 7.95139e-015
lhumerus -110.868 211.401 -116.757
lradius 89.0998
lwrist 46.0067
lhand -20.3176 -8.29642
lfingers 7.12502
lthumb 6.03317 21.5977
rfemur 3.90064 25.8717 24.2566
rtibia 26.3925
rfoot 329.553 -34.9533
rtoes 5.34371
lfemur -11.8329 -23.5708 -13.1901
ltibia 35.8612
lfoot 10.6798 21.1782
ltoes 6.0099
159
root 0.768425 19.7204 0.149864 4.49488 -79.2456 -7.24513
lowerback 11.2861 0.976976 2.03348
upperback -10.3693 0.791353 -4.27592
thorax -18.2535 -0.448172 -6.3139
lowerneck -2.36229 -5.921 -3.66448
upperneck 15.4256 -8.11773 0.502472
head 5.20302 -4.26615 0.313716
rclavicle -1.43125e-014 -9.54166e-015
rhumerus 71.3472 -12.125 -64.0599
rradius 79.7055
rwrist 39.6242
rhand -63.5393 248.407
rfingers 7.12502
rthumb -35.5143 445.159
lclavicle -1.43125e-014 -9.54166e-015
lhumerus -111.598 211.874 -115.736
lradius 89.2304
lwrist 46.0899
lhand -20.2757 -7.61746
lfingers 7.12502
lthumb 6.0736 22.2755
rfemur 4.35597 31.1416 25.5907
rtibia 25.6765
rfoot 323.274 -34.8762
rtoes 6.57613
lfemur -12.9946 -25.0932 -13.2051
ltibia 35.4657
lfoot 11.2827 22.7322
ltoes 5.80944
